<?xml version="1.0" encoding="UTF-8" standalone="no"?>
<!-- Created with Inkscape (http://www.inkscape.org/) -->

<svg
   width="51mm"
   height="55mm"
   viewBox="0 0 51 55"
   version="1.1"
   id="svg5"
   xml:space="preserve"
   inkscape:version="1.2.2 (b0a8486541, 2022-12-01)"
   sodipodi:docname="lorenz-loop.svg"
   xmlns:inkscape="http://www.inkscape.org/namespaces/inkscape"
   xmlns:sodipodi="http://sodipodi.sourceforge.net/DTD/sodipodi-0.dtd"
   xmlns="http://www.w3.org/2000/svg"
   xmlns:svg="http://www.w3.org/2000/svg"><sodipodi:namedview
     id="namedview7"
     pagecolor="#ffffff"
     bordercolor="#666666"
     borderopacity="1.0"
     inkscape:showpageshadow="2"
     inkscape:pageopacity="0.0"
     inkscape:pagecheckerboard="0"
     inkscape:deskcolor="#d1d1d1"
     inkscape:document-units="mm"
     showgrid="false"
     inkscape:zoom="4.2335835"
     inkscape:cx="156.0144"
     inkscape:cy="72.042987"
     inkscape:window-width="1920"
     inkscape:window-height="1023"
     inkscape:window-x="0"
     inkscape:window-y="0"
     inkscape:window-maximized="1"
     inkscape:current-layer="layer1" /><defs
     id="defs2" /><g
     inkscape:label="Layer 1"
     inkscape:groupmode="layer"
     id="layer1"><path
       style="fill:#000000;stroke-width:0.135284"
       d="M 17.554668,44.397269 C 17.121591,44.339559 16.382231,44.09073 15.863613,43.828152 15.356772,43.571538 14.697406,43.182975 14.398357,42.964673 14.099307,42.746368 13.465769,42.20791 12.990494,41.768098 12.515224,41.328286 11.722219,40.481417 11.228269,39.886164 10.734318,39.290913 9.9919428,38.316864 9.5785528,37.721611 9.1651628,37.126363 8.5099908,36.098888 8.1226243,35.438343 7.7352533,34.777795 6.9996752,33.401653 6.4879984,32.380252 5.9763262,31.35885 5.2254373,29.707695 4.8193622,28.711011 4.413287,27.71433 3.8646136,26.290088 3.600087,25.54602 3.335565,24.801957 2.845344,23.249569 2.5107069,22.096272 2.1760747,20.94297 1.690029,19.055754 1.4306122,17.902456 1.1711953,16.749155 0.8275225,14.953255 0.6669053,13.911566 0.4342748,12.402871 0.3746911,11.412137 0.3740009,9.0413294 0.3730422,6.4485654 0.4096648,5.9271868 0.6566567,4.9949293 0.8125954,4.4063497 1.0833058,3.6121609 1.2582365,3.230063 1.4331671,2.8479603 1.777444,2.3062328 2.0232998,2.0262228 2.2691557,1.7462082 2.6894867,1.4052916 2.9573739,1.2686278 3.225256,1.1319591 3.7066713,0.94953143 4.0271819,0.86322853 c 0.3205105,-0.086303 1.0202617,-0.154563 1.5550099,-0.151682 0.5347436,0.00288 1.276654,0.088738 1.6486855,0.1907877 0.372031,0.10205437 1.133893,0.37674347 1.6930265,0.61042367 0.559133,0.2336803 1.6769002,0.7920655 2.4839312,1.2408559 0.80703,0.4487951 2.328093,1.3711633 3.380136,2.0497178 1.052048,0.6785494 2.64335,1.7533478 3.536223,2.3884338 0.892879,0.635087 2.772033,2.041583 4.175907,3.1255466 1.40387,1.083963 2.629339,2.0268 2.723263,2.095189 0.11958,0.08707 0.631904,-0.240434 1.708969,-1.092457 0.846002,-0.669241 2.390482,-1.8489356 3.432171,-2.6215436 1.041688,-0.772604 3.202857,-2.282243 4.802595,-3.354745 2.080488,-1.394815 3.563411,-2.2706664 5.208445,-3.0762354 1.264908,-0.619426 2.695541,-1.2290877 3.179186,-1.35481257 0.483639,-0.125725 1.366368,-0.2354348 1.961622,-0.2437995 0.748631,-0.010546 1.276518,0.059751 1.71236,0.2279472 0.384737,0.14847517 0.876425,0.50652387 1.262743,0.91952567 0.347966,0.3720027 0.811344,1.0704358 1.029729,1.5520717 0.218385,0.4816356 0.49909,1.2854068 0.623796,1.7861591 0.175549,0.7049237 0.227245,1.5518268 0.228984,3.7514338 0.0014,1.5774396 -0.0753,3.4125696 -0.172108,4.1261746 -0.0959,0.70686 -0.296398,1.985297 -0.445558,2.840968 -0.149163,0.855676 -0.533923,2.590697 -0.855026,3.855607 -0.3211,1.26491 -0.838584,3.091249 -1.14997,4.058533 -0.311383,0.967279 -0.999587,2.850675 -1.52934,4.185321 -0.529754,1.334646 -1.455838,3.404498 -2.057965,4.59967 -0.602124,1.195174 -1.513741,2.8427 -2.025815,3.661169 -0.512071,0.818468 -1.379907,2.077126 -1.928525,2.797021 -0.548614,0.719888 -1.592227,1.87657 -2.319134,2.570399 -0.72691,0.693833 -1.743587,1.508974 -2.259284,1.811427 -0.5157,0.302449 -1.197599,0.652496 -1.515335,0.777883 -0.386761,0.152626 -0.970448,0.22797 -1.766031,0.22797 -1.081385,0 -1.244528,-0.03562 -1.812729,-0.39598 -0.343419,-0.21779 -0.839965,-0.628717 -1.103426,-0.913168 -0.263467,-0.284454 -0.662953,-0.887679 -0.887756,-1.340495 -0.224802,-0.452822 -0.52666,-1.213796 -0.670807,-1.691057 -0.144141,-0.477258 -0.325893,-1.202574 -0.403894,-1.611808 -0.078,-0.40924 -0.204684,-1.335227 -0.281524,-2.057757 -0.07684,-0.722529 -0.138586,-2.244479 -0.13722,-3.382111 0.0015,-1.137627 0.08911,-2.677637 0.194991,-3.422244 0.105885,-0.744598 0.259019,-1.657766 0.340308,-2.029262 0.08128,-0.37149 0.302573,-1.162463 0.491749,-1.757715 0.189178,-0.595252 0.602656,-1.630177 0.918826,-2.299835 0.316179,-0.669657 0.893852,-1.731038 1.283722,-2.358628 0.708854,-1.141069 0.708854,-1.141069 0.478897,-1.743199 -0.126477,-0.331172 -0.582213,-1.126569 -1.01275,-1.767547 -0.430542,-0.640977 -1.381182,-1.754344 -2.112542,-2.474147 -0.73136,-0.719807 -1.527313,-1.470735 -1.768778,-1.668722 -0.24147,-0.197993 -0.498475,-0.339594 -0.571126,-0.314677 -0.07265,0.02493 -0.742615,0.612686 -1.488812,1.306149 -0.746196,0.693462 -1.750533,1.765178 -2.231862,2.381584 -0.481324,0.616411 -1.089308,1.567636 -1.351064,2.113836 -0.420029,0.876446 -0.454548,1.02575 -0.293878,1.271093 0.100123,0.152905 0.444117,0.704148 0.764426,1.224994 0.320304,0.520843 0.811661,1.434012 1.091901,2.029264 0.28024,0.595252 0.667151,1.565364 0.859803,2.155804 0.192648,0.590439 0.468655,1.655804 0.613348,2.367475 0.144693,0.711675 0.328415,2.115802 0.40828,3.12029 0.100564,1.264846 0.103248,2.450213 0.0087,3.855601 -0.07506,1.116096 -0.232237,2.546729 -0.349276,3.179183 -0.117039,0.632455 -0.36477,1.614259 -0.550505,2.181783 -0.18574,0.567533 -0.552201,1.389385 -0.81436,1.82634 -0.262154,0.43696 -0.65822,0.982973 -0.880147,1.213355 -0.221926,0.230386 -0.659356,0.543184 -0.972072,0.69511 -0.312711,0.151924 -0.842517,0.301397 -1.177346,0.332165 -0.334829,0.03077 -0.95507,0.0098 -1.378311,-0.04659 z m 2.312567,-0.622288 c 0.267422,-0.126522 0.733594,-0.484043 1.035937,-0.794487 0.302338,-0.310444 0.746886,-0.964964 0.987876,-1.454483 0.240991,-0.489527 0.581083,-1.454457 0.755755,-2.144294 0.174676,-0.689834 0.386254,-1.82098 0.470174,-2.513646 0.08392,-0.692672 0.152334,-2.340634 0.152037,-3.662137 -2.69e-4,-1.401876 -0.08522,-3.005985 -0.203831,-3.850939 -0.111809,-0.796513 -0.298465,-1.815486 -0.414785,-2.264386 -0.116325,-0.448901 -0.368758,-1.254024 -0.560969,-1.789165 -0.192211,-0.535141 -0.562254,-1.399129 -0.822318,-1.919971 -0.260059,-0.520847 -0.714433,-1.362626 -1.009715,-1.870626 -0.295283,-0.508001 -0.5771,-0.883335 -0.626257,-0.834072 -0.04916,0.04926 -0.09096,2.382553 -0.09288,5.185091 -0.0034,4.808746 -0.01956,5.145841 -0.289343,5.98948 -0.157218,0.491679 -0.360345,1.033144 -0.451388,1.20326 -0.09104,0.170118 -0.409642,0.574127 -0.707992,0.897802 -0.350029,0.37974 -0.732947,0.639789 -1.079462,0.733095 -0.38321,0.103187 -0.733992,0.102356 -1.224797,-0.0029 C 15.406989,34.601473 14.78567,34.356699 14.404569,34.13865 14.023468,33.920607 13.327796,33.359139 12.858638,32.89094 12.389475,32.422747 11.617053,31.456861 11.142148,30.744537 10.667237,30.03221 9.9486138,28.753774 9.5452088,27.90357 9.1418078,27.053362 8.5870518,25.68808 8.3124243,24.869607 c -0.274626,-0.818468 -0.646212,-2.157783 -0.82574,-2.976256 -0.182988,-0.83423 -0.3616484,-2.201467 -0.4065879,-3.11154 -0.060466,-1.224428 -0.027132,-1.871671 0.1356049,-2.633542 0.139923,-0.655042 0.370742,-1.238588 0.656614,-1.660022 0.285379,-0.420705 0.6516295,-0.752466 1.0385925,-0.940771 0.42595,-0.207282 0.834326,-0.287301 1.4208392,-0.278409 0.492632,0.0075 1.14883,0.134167 1.634439,0.315569 0.446241,0.1667 1.227947,0.551966 1.737122,0.85615 0.509174,0.304183 1.400994,0.932933 1.981817,1.397211 0.580824,0.464283 1.667486,1.489368 2.414794,2.277968 1.358753,1.433815 1.358753,1.433815 1.827796,0.50242 0.257974,-0.512271 0.729567,-1.263405 1.047983,-1.669188 0.318411,-0.405782 1.343279,-1.518602 2.277483,-2.472934 1.698552,-1.735151 1.698552,-1.735151 1.225751,-2.134952 C 24.218897,12.121447 22.849459,11.068963 21.435734,10.002486 20.022014,8.9360054 17.941636,7.4242814 16.812676,6.6430974 15.683716,5.8619081 13.948694,4.7357331 12.957073,4.140476 11.965453,3.5452238 10.761368,2.8601694 10.281329,2.6181388 9.8012888,2.3761033 8.8272418,1.9610451 8.1167763,1.6957849 6.9649508,1.2657372 6.6784793,1.2124858 5.4721802,1.2041834 4.3313224,1.196322 4.033423,1.240854 3.5710428,1.4884068 3.2694815,1.6498532 2.8226417,1.984682 2.5780706,2.2324697 2.3334993,2.4802622 1.9874777,2.9685561 1.8091293,3.3175738 1.6307856,3.6665915 1.3474107,4.427566 1.1794067,5.0086291 0.9010746,5.9712824 0.8738856,6.3474504 0.8732289,9.2442924 c -4.326e-4,1.9404536 0.068059,3.6272336 0.1757935,4.3290986 0.097079,0.632455 0.2991361,1.819575 0.4490157,2.638043 0.1498796,0.818469 0.5157082,2.431735 0.8129508,3.585036 0.2972427,1.153297 0.8043179,2.918758 1.1268321,3.923245 0.3225187,1.004486 0.8404272,2.495996 1.1509145,3.314469 0.3104872,0.818468 0.9356318,2.309979 1.389211,3.314464 0.4535744,1.004487 1.1888268,2.495997 1.6338828,3.314471 0.445061,0.818468 1.1754435,2.066466 1.6230745,2.773325 0.44763,0.706862 1.1787842,1.766119 1.6247892,2.353907 0.446001,0.587783 1.206487,1.48803 1.689968,2.000545 0.483481,0.512515 1.280441,1.232498 1.771021,1.599966 0.490586,0.367462 1.172294,0.820733 1.514908,1.007265 0.342613,0.186537 0.951393,0.43083 1.352842,0.542883 0.448105,0.125073 1.012266,0.176761 1.461244,0.133885 0.402231,-0.0384 0.950132,-0.17336 1.217559,-0.29988 z m 13.608807,0.18874 c 0.372033,-0.09938 0.950372,-0.319144 1.285201,-0.488369 0.334829,-0.169222 0.974048,-0.566852 1.420489,-0.883617 0.446438,-0.316768 1.330309,-1.11598 1.964158,-1.776035 0.633852,-0.660059 1.445745,-1.58281 1.804211,-2.050559 0.358472,-0.467747 1.103508,-1.557007 1.655638,-2.420574 0.55213,-0.86357 1.453785,-2.459397 2.003681,-3.54629 0.549895,-1.086893 1.271873,-2.615385 1.604397,-3.396649 0.332524,-0.78127 0.878705,-2.151025 1.213731,-3.043899 0.335022,-0.892878 0.858062,-2.445266 1.162299,-3.449752 0.304242,-1.004487 0.735545,-2.556875 0.958455,-3.449753 0.222907,-0.892874 0.530121,-2.262628 0.682696,-3.043898 0.152572,-0.781266 0.365726,-2.096 0.473683,-2.921629 0.107949,-0.82563 0.237693,-2.286701 0.288316,-3.246828 0.05777,-1.0957746 0.03173,-2.2745106 -0.07001,-3.1661616 C 49.833856,6.2984417 49.668289,5.2939551 49.555055,4.8475135 49.441821,4.4010767 49.16072,3.6811349 48.930384,3.2476409 48.700046,2.8141467 48.271928,2.254333 47.97901,2.0036021 47.686093,1.752876 47.168731,1.4531119 46.829322,1.337463 46.489914,1.2218188 45.846718,1.1271943 45.400004,1.1271943 c -0.446719,0 -1.295063,0.1302885 -1.885205,0.2895251 -0.590141,0.1592366 -1.964043,0.7344375 -3.05311,1.2782215 -1.08907,0.5437887 -2.619344,1.3923796 -3.400611,1.8857692 -0.781264,0.4933847 -2.303213,1.5098834 -3.382111,2.2588833 -1.07889,0.748996 -3.026984,2.158599 -4.329097,3.13244 -1.302113,0.9738456 -2.628678,2.0099306 -2.947928,2.3024136 -0.58045,0.531791 -0.58045,0.531791 1.225589,2.369658 0.993317,1.010823 1.995679,2.084332 2.227466,2.385568 0.231784,0.30124 0.658191,0.984046 0.947569,1.517347 0.526139,0.969642 0.526139,0.969642 1.771145,-0.370862 0.684757,-0.737275 1.746248,-1.74168 2.358874,-2.232011 0.612623,-0.490327 1.524829,-1.135772 2.02713,-1.434324 0.502295,-0.298546 1.322977,-0.697028 1.823735,-0.88551 0.581089,-0.218725 1.208799,-0.347225 1.735109,-0.355206 0.635243,-0.0096 0.960706,0.06271 1.41708,0.314978 0.325841,0.180113 0.761367,0.570992 0.96783,0.868619 0.206468,0.297626 0.47551,0.936844 0.597871,1.420484 0.17716,0.700211 0.2073,1.278964 0.147962,2.840973 -0.05347,1.407633 -0.16976,2.362789 -0.411761,3.382111 -0.185485,0.781266 -0.519486,1.968386 -0.742228,2.638044 -0.222739,0.669657 -0.625134,1.739853 -0.89421,2.378214 -0.269077,0.638355 -0.875976,1.804571 -1.348663,2.591584 -0.472691,0.787008 -1.20381,1.857151 -1.624713,2.378094 -0.4209,0.520939 -1.085683,1.19436 -1.477302,1.496485 -0.391612,0.302128 -1.011287,0.681706 -1.377053,0.843502 -0.396911,0.175572 -0.940815,0.294173 -1.349062,0.294173 -0.376216,0 -0.874979,-0.09874 -1.108363,-0.219429 -0.233381,-0.120685 -0.613682,-0.448997 -0.845104,-0.729571 -0.231429,-0.280575 -0.548117,-0.844968 -0.70376,-1.254202 -0.155635,-0.409234 -0.368641,-1.291964 -0.473336,-1.961622 -0.149485,-0.956118 -0.170938,-2.105644 -0.09991,-5.353449 0.0561,-2.565512 0.04118,-4.22389 -0.03926,-4.367668 -0.105869,-0.189172 -0.287747,0.04434 -0.9895,1.270365 -0.47289,0.826172 -1.066655,2.052863 -1.319486,2.725976 -0.25283,0.673109 -0.575037,1.688649 -0.716015,2.256746 -0.140977,0.568102 -0.334829,1.489497 -0.430772,2.047541 -0.110151,0.640657 -0.173296,2.211362 -0.171321,4.261459 0.0024,2.562918 0.05402,3.503292 0.244768,4.464385 0.132905,0.669658 0.336751,1.552388 0.452993,1.961625 0.116245,0.409234 0.377651,1.109328 0.580907,1.555766 0.203255,0.446441 0.628788,1.102922 0.945624,1.458846 0.316845,0.355927 0.766565,0.74564 0.999382,0.866034 0.232817,0.120401 0.575897,0.26532 0.762395,0.322051 0.186503,0.05673 0.552164,0.107652 0.812582,0.113165 0.260422,0.0055 0.777886,-0.07129 1.149916,-0.170665 z M 17.426479,34.040255 c 0.196118,-0.143749 0.545337,-0.539416 0.776051,-0.879266 0.230703,-0.339841 0.535093,-1.035558 0.676421,-1.54603 0.231571,-0.836463 0.257001,-1.435852 0.257451,-6.068939 2.73e-4,-2.827441 0.03073,-5.211719 0.06764,-5.298396 0.03691,-0.08668 -0.271478,-0.5737 -0.685342,-1.082276 -0.41387,-0.508575 -1.266161,-1.389096 -1.893981,-1.956713 -0.627822,-0.567618 -1.628517,-1.380775 -2.223769,-1.807016 -0.595252,-0.426242 -1.356227,-0.913376 -1.691056,-1.082526 -0.334828,-0.169144 -0.951819,-0.383814 -1.371096,-0.477038 -0.419272,-0.09323 -1.105496,-0.141041 -1.5249402,-0.106259 -0.607121,0.05035 -0.847301,0.143682 -1.177878,0.457716 -0.2283885,0.216965 -0.5404915,0.637987 -0.6935635,0.935613 -0.167079,0.324853 -0.325093,1.000743 -0.395352,1.691055 -0.07223,0.709699 -0.06292,1.779876 0.0243,2.795459 0.07774,0.905049 0.292037,2.225372 0.476229,2.934054 0.184192,0.708682 0.5217625,1.824963 0.7501565,2.480633 0.228393,0.655665 0.742543,1.878378 1.142549,2.717142 0.4000122,0.838763 1.0700482,2.050857 1.4889702,2.693537 0.418922,0.642687 1.106733,1.532816 1.528468,1.97807 0.421736,0.445257 1.071179,1.004701 1.443215,1.243219 0.372032,0.238512 0.859055,0.502084 1.082271,0.585719 0.223221,0.08363 0.671542,0.129897 0.996271,0.102828 0.324724,-0.02709 0.750869,-0.166836 0.946988,-0.310586 z m 18.361724,-0.03049 c 0.310723,-0.137451 1.033674,-0.695151 1.60656,-1.239331 0.59537,-0.565546 1.410929,-1.544191 1.90369,-2.284381 0.474156,-0.71223 1.164741,-1.932472 1.534642,-2.711654 0.369905,-0.779175 0.895076,-2.055906 1.167047,-2.837176 0.271971,-0.781266 0.64568,-2.059703 0.830461,-2.840968 0.230296,-0.973726 0.360387,-2.00498 0.41362,-3.278892 0.05323,-1.273951 0.02311,-2.115485 -0.09582,-2.675865 -0.09542,-0.44961 -0.348272,-1.09308 -0.561901,-1.429941 -0.240874,-0.379821 -0.56591,-0.686637 -0.855672,-0.807707 -0.256986,-0.107375 -0.797614,-0.195227 -1.201404,-0.195227 -0.403787,0 -1.12314,0.120146 -1.59856,0.266986 -0.490461,0.151486 -1.38912,0.614556 -2.077337,1.070417 -0.667111,0.441892 -1.801431,1.346985 -2.520707,2.011326 -0.719274,0.664342 -1.651278,1.598066 -2.071111,2.074942 -0.763342,0.867051 -0.763342,0.867051 -0.664985,1.746401 0.0541,0.48364 0.07293,1.97515 0.04185,3.314465 -0.03106,1.339315 -0.05546,3.28741 -0.05418,4.3291 0.002,1.38349 0.06906,2.156765 0.249894,2.868941 0.13615,0.536234 0.43949,1.293276 0.674087,1.68232 0.297528,0.493421 0.610647,0.80494 1.035313,1.030025 0.471745,0.250044 0.729289,0.303935 1.14417,0.239403 0.294463,-0.04583 0.789614,-0.195739 1.100343,-0.333184 z"
       id="path1582" /></g></svg>
